<svg width="80" viewBox="0 0 120 120" fill="none" xmlns="http://www.w3.org/2000/svg">
                  <circle cx="60" cy="60" r="60" fill="#FFE6DF"></circle>
                  <path d="M40.8496 64.05C41.8829 64.5167 42.6163 64.9667 43.0496 65.4C43.5163 65.8333 43.7496 66.3 43.7496 66.8C43.7496 67.4333 43.3996 68.2 42.6996 69.1C42.0329 70 41.2329 70.8833 40.2996 71.75L20.9996 62.65C19.9663 62.15 19.2163 61.7 18.7496 61.3C18.2829 60.8667 18.0496 60.4 18.0496 59.9C18.0496 59.2667 18.3996 58.4833 19.0996 57.55C19.7996 56.5833 20.5996 55.7 21.4996 54.9L40.8496 64.05ZM43.4996 45.4C44.4663 45.4 45.1496 46 45.5496 47.2C45.9496 48.3667 46.1996 49.8333 46.2996 51.6L27.0996 60.25C25.8329 60.85 24.8996 61.15 24.2996 61.15C23.8663 61.15 23.4996 61.0333 23.1996 60.8C22.9329 60.5667 22.6829 60.2167 22.4496 59.75C21.9163 58.65 21.5996 57.0333 21.4996 54.9L40.6996 46.25C41.9996 45.6833 42.9329 45.4 43.4996 45.4ZM54.5891 81C53.9224 81 53.2057 80.8833 52.4391 80.65C51.6724 80.45 51.0724 80.1833 50.6391 79.85C53.8724 70.5167 57.4724 56.9667 61.4391 39.2C61.7391 37.8333 62.2057 36.8333 62.8391 36.2C63.5057 35.5333 64.3557 35.2 65.3891 35.2C66.0891 35.2 66.8224 35.3167 67.5891 35.55C68.3557 35.75 68.9391 36.0167 69.3391 36.35C66.1391 45.55 62.5391 59.1 58.5391 77C58.2391 78.3667 57.7557 79.3667 57.0891 80C56.4557 80.6667 55.6224 81 54.5891 81ZM80.4609 53.1C79.4276 52.6333 78.6776 52.1833 78.2109 51.75C77.7776 51.3167 77.5609 50.85 77.5609 50.35C77.5609 49.7167 77.8943 48.95 78.5609 48.05C79.2609 47.15 80.0776 46.2667 81.0109 45.4L100.311 54.5C101.344 55 102.094 55.4667 102.561 55.9C103.028 56.3 103.261 56.75 103.261 57.25C103.261 57.8833 102.911 58.6833 102.211 59.65C101.511 60.5833 100.711 61.45 99.8109 62.25L80.4609 53.1ZM77.8109 71.75C76.8443 71.75 76.1609 71.1667 75.7609 70C75.3609 68.8 75.1109 67.3167 75.0109 65.55L94.2109 56.9C95.4776 56.3 96.4109 56 97.0109 56C97.4443 56 97.7943 56.1167 98.0609 56.35C98.3609 56.5833 98.6276 56.9333 98.8609 57.4C99.3943 58.5 99.7109 60.1167 99.8109 62.25L80.6109 70.9C79.3109 71.4667 78.3776 71.75 77.8109 71.75Z" fill="#E44F26"></path>
                </svg>