<svg width="80" viewBox="0 0 120 120" fill="none" xmlns="http://www.w3.org/2000/svg">
                  <circle cx="60" cy="60" r="60" fill="#FFE2F0"></circle>
                  <path d="M86.9701 62.0223C84.7025 62.034 82.7316 62.5801 81.0815 63.3875C80.4758 62.1883 79.8703 61.1199 79.7636 60.3363C79.6447 59.4222 79.5024 58.8641 79.6447 57.7718C79.7873 56.6796 80.4284 55.1241 80.4164 55.0055C80.4047 54.8868 80.2739 54.3287 78.968 54.317C77.6621 54.3051 76.5342 54.5663 76.4035 54.9105C76.2729 55.2548 76.0237 56.0384 75.8574 56.8456C75.6318 58.0331 73.2456 62.2713 71.8804 64.4915C71.441 63.625 71.0611 62.865 70.9778 62.2596C70.8592 61.3455 70.7166 60.7874 70.8592 59.6951C71.0018 58.6029 71.6429 57.0477 71.6309 56.9288C71.6189 56.8102 71.4883 56.2521 70.1824 56.2404C68.8763 56.2284 67.7484 56.4896 67.618 56.8338C67.4874 57.1783 67.3448 57.9854 67.0719 58.7691C66.7987 59.5528 63.6288 66.6289 62.7977 68.457C62.4619 69.1969 62.1096 69.9293 61.7411 70.6535C61.7411 70.6535 61.7291 70.6892 61.6935 70.7485C61.5777 70.9756 61.4591 71.2012 61.3376 71.4252V71.437C61.1593 71.7578 60.9694 72.0544 60.8744 72.0544C60.8031 72.0544 60.6725 71.1997 60.8981 70.0361C61.3729 67.5786 62.5009 63.7557 62.4891 63.625C62.4891 63.5537 62.7028 62.889 61.7531 62.5445C60.8268 62.2002 60.4945 62.7701 60.4113 62.7701C60.3283 62.7701 60.2687 62.972 60.2687 62.972C60.2687 62.972 61.3019 58.6742 58.298 58.6742C56.4223 58.6742 53.834 60.7281 52.5517 62.5801C51.0941 63.3733 49.6378 64.1688 48.1827 64.9666C47.4825 65.3584 46.7581 65.7503 46.0814 66.1182C46.0338 66.0708 45.9864 66.0112 45.9388 65.9639C42.3058 62.0816 35.5861 59.3389 35.871 54.1271C35.978 52.2275 36.6308 47.2409 48.7764 41.1861C58.7729 36.2589 66.7276 37.6241 68.1048 40.6516C70.0755 44.9734 63.8427 52.9992 53.5134 54.1625C49.5718 54.6019 47.5059 53.0822 46.9837 52.5124C46.4376 51.9186 46.3543 51.883 46.1524 52.0019C45.8201 52.1801 46.0338 52.7143 46.1524 53.0229C46.4612 53.83 47.7315 55.2548 49.8804 55.9554C51.78 56.5726 56.3984 56.9171 61.9904 54.7562C68.2471 52.3341 73.1387 45.6025 71.7022 39.9632C70.2654 34.2406 60.7675 32.3529 51.78 35.5465C46.4376 37.4464 40.6437 40.438 36.4765 44.3323C31.5256 48.9623 30.7419 52.9872 31.0625 54.6732C32.2143 60.6568 40.4657 64.551 43.7662 67.436C43.5999 67.531 43.4454 67.6143 43.315 67.6855C41.6647 68.5046 35.3722 71.7932 33.8051 75.2719C32.0244 79.2135 34.0903 82.0394 35.4555 82.419C39.694 83.5946 44.0511 81.4813 46.3899 77.9906C48.7288 74.5002 48.4439 69.9648 47.3636 67.8872C47.3516 67.8635 47.3399 67.8396 47.316 67.8159C47.7435 67.5666 48.1827 67.3054 48.6101 67.0562C49.3958 66.5917 50.1915 66.1443 50.9966 65.7144C50.5928 66.8186 50.2959 68.1365 50.1536 70.0361C49.9754 72.2683 50.8894 75.1649 52.0886 76.3046C52.623 76.8036 53.2522 76.8153 53.656 76.8153C55.0568 76.8153 55.6862 75.6518 56.3867 74.2746C57.2414 72.5888 58.0131 70.6298 58.0131 70.6298C58.0131 70.6298 57.0515 75.925 59.6635 75.925C60.6132 75.925 61.5748 74.6901 62.0023 74.061V74.0727C62.0023 74.0727 62.026 74.037 62.0736 73.954C62.1686 73.7997 62.2279 73.7045 62.2279 73.7045V73.6811C62.6078 73.016 63.4628 71.5083 64.733 69.0032C66.3714 65.7739 67.9505 61.7374 67.9505 61.7374C67.9505 61.7374 68.0931 62.7227 68.5797 64.3611C68.8648 65.3228 69.4581 66.3794 69.9332 67.4004C69.5533 67.9348 69.3157 68.2314 69.3157 68.2314L69.3277 68.2434C69.0189 68.647 68.6866 69.0862 68.3184 69.5139C67.0242 71.0571 65.4811 72.8264 65.2672 73.3366C65.0177 73.9421 65.0773 74.3815 65.5524 74.7377C65.8966 74.9989 66.5138 75.0343 67.1432 74.9989C68.3067 74.9157 69.1258 74.6308 69.5294 74.4528C70.1587 74.2272 70.8948 73.8827 71.5833 73.3722C72.8538 72.4343 73.6253 71.0927 73.5542 69.324C73.5186 68.3503 73.198 67.3767 72.8062 66.4624C72.9251 66.2964 73.0318 66.1301 73.1507 65.9639C75.157 63.0313 76.7124 59.8138 76.7124 59.8138C76.7124 59.8138 76.855 60.7991 77.3415 62.4378C77.5791 63.2688 78.0659 64.1712 78.4931 65.0496C76.6055 66.5813 75.4419 68.362 75.0264 69.5256C74.2786 71.6865 74.8601 72.6598 75.9643 72.8854C76.4629 72.9924 77.1753 72.7548 77.6977 72.5292C78.3625 72.3156 79.1462 71.9477 79.8942 71.4013C81.1647 70.4636 82.3874 69.1574 82.3161 67.3887C82.2804 66.5813 82.0668 65.7857 81.7699 65.0139C83.3727 64.3494 85.4386 63.9812 88.0741 64.2898C93.7256 64.9546 94.8416 68.4807 94.6277 69.9651C94.4141 71.4489 93.2269 72.2563 92.8353 72.5056C92.4432 72.7551 92.3128 72.8381 92.3485 73.016C92.3958 73.2773 92.5858 73.2656 92.9183 73.2179C93.3814 73.1349 95.8865 72.0187 95.9932 69.2881C96.1714 65.7976 92.847 61.9866 86.9701 62.0223V62.0223ZM43.3744 76.7204C41.4984 78.7623 38.8866 79.534 37.7587 78.8812C36.5478 78.1805 37.0226 75.1649 39.3258 73.0043C40.7267 71.6865 42.5313 70.4633 43.7306 69.7155C44.0035 69.5493 44.4073 69.312 44.8941 69.0151C44.9771 68.9675 45.0247 68.9438 45.0247 68.9438L45.3096 68.7656C46.1524 71.8525 45.3453 74.5715 43.3744 76.7204V76.7204ZM57.0278 67.436C56.3747 69.0271 55.0095 73.0993 54.1784 72.8737C53.466 72.6838 53.0266 69.5969 54.0359 66.5457C54.5464 65.0139 55.6267 63.1856 56.2561 62.4734C57.277 61.3336 58.405 60.9534 58.6779 61.4168C59.0224 62.0223 57.4313 66.4387 57.0278 67.436V67.436ZM68.2948 72.8261C68.0216 72.9687 67.7606 73.0637 67.6417 72.9924C67.5587 72.9448 67.7606 72.7548 67.7606 72.7548C67.7606 72.7548 69.1734 71.2353 69.7313 70.5466C70.0521 70.143 70.4317 69.6682 70.8355 69.1338V69.2881C70.8355 71.1047 69.0782 72.3276 68.2945 72.8261H68.2948ZM76.9853 70.8435C76.7834 70.7009 76.8191 70.226 77.4958 68.7419C77.7571 68.1601 78.3742 67.1868 79.4311 66.2488C79.5498 66.6287 79.633 66.9968 79.621 67.3411C79.6091 69.6325 77.9709 70.4873 76.9853 70.8435Z" fill="#CD6799"></path>
                </svg>